<svg viewBox="0 0 48 48" xml:space="preserve" xmlns="http://www.w3.org/2000/svg" enable-background="new 0 0 48 48"><path d="M41 40.5h-8.781a.5.5 0 0 0 0 1H41a.5.5 0 0 0 0-1zM29.281 40.5H7.5V7a.5.5 0 0 0-1 0v34a.5.5 0 0 0 .5.5h22.281a.5.5 0 0 0 0-1z" fill="#686b6e" class="fill-000000"></path><path d="M12 33.625h.812v1.688a.5.5 0 0 0 1 0v-1.688h.813a.5.5 0 0 0 .5-.5V24a.5.5 0 0 0-.5-.5h-.813v-2.719a.5.5 0 0 0-1 0V23.5H12a.5.5 0 0 0-.5.5v9.125a.5.5 0 0 0 .5.5zm.5-9.125h1.625v8.125H12.5V24.5zM17.375 35.813h.812v2.604a.5.5 0 0 0 1 0v-2.604H20a.5.5 0 0 0 .5-.5v-9.125a.5.5 0 0 0-.5-.5h-.813V24.5a.5.5 0 0 0-1 0v1.188h-.812a.5.5 0 0 0-.5.5v9.125a.5.5 0 0 0 .5.5zm.5-9.125H19.5v8.125h-1.625v-8.125zM22.75 31.25h.812v2.969a.5.5 0 0 0 1 0V31.25h.813a.5.5 0 0 0 .5-.5v-3.094a.5.5 0 0 0-1 0v2.594H23.25v-8.125h1.625v2.593a.5.5 0 0 0 1 0v-3.093a.5.5 0 0 0-.5-.5h-.813v-2.208a.5.5 0 0 0-1 0v2.208h-.812a.5.5 0 0 0-.5.5v9.125a.5.5 0 0 0 .5.5zM30.75 16.563h-.813V12a.5.5 0 0 0-1 0v4.563h-.812a.5.5 0 0 0-.5.5v9.125a.5.5 0 0 0 .5.5h.812v1.188a.5.5 0 0 0 1 0v-1.188h.813a.5.5 0 0 0 .5-.5v-9.125a.5.5 0 0 0-.5-.5zm-.5 9.125h-1.625v-8.125h1.625v8.125zM33.5 23.313h.812V24.5a.5.5 0 0 0 1 0v-1.188h.813a.5.5 0 0 0 .5-.5v-9.125a.5.5 0 0 0-.5-.5h-.813V9.25a.5.5 0 0 0-1 0v3.938H33.5a.5.5 0 0 0-.5.5v9.125a.5.5 0 0 0 .5.5zm.5-9.125h1.625v8.125H34v-8.125z" fill="#686b6e" class="fill-000000"></path></svg>