<svg viewBox="0 0 846.66 846.66" xml:space="preserve" xmlns="http://www.w3.org/2000/svg" shape-rendering="geometricPrecision" text-rendering="geometricPrecision" image-rendering="optimizeQuality" fill-rule="evenodd" clip-rule="evenodd"><path d="M246.64 243.41h155.89v-16.64c0-80.13 65.47-145.61 145.6-145.61h187.2c11.49 0 20.8 9.32 20.8 20.81v621.92h62.72c27.37 0 27.37 41.61 0 41.61H27.81c-27.36 0-27.36-41.61 0-41.61h62.72V399.51c0-85.9 70.21-156.1 156.11-156.1zm344.13 480.48v-84.1h-22.89v84.1h22.89zm-64.5 0V618.98c0-11.49 9.32-20.8 20.81-20.8h64.5c11.49 0 20.8 9.31 20.8 20.8v104.91h82.14V122.77H548.13c-57.15 0-104 46.85-104 104v497.12h82.14zm-345.8-240.14h58.26c11.48 0 20.8 9.31 20.8 20.8v62.42c0 11.49-9.32 20.8-20.8 20.8h-58.26c-11.49 0-20.8-9.31-20.8-20.8v-62.42c0-11.49 9.31-20.8 20.8-20.8zm37.45 41.61h-16.64v20.8h16.64v-20.8zm78.02-41.61h58.26c11.48 0 20.8 9.31 20.8 20.8v62.42c0 11.49-9.32 20.8-20.8 20.8h-58.26c-11.49 0-20.8-9.31-20.8-20.8v-62.42c0-11.49 9.31-20.8 20.8-20.8zm37.45 41.61h-16.64v20.8h16.64v-20.8zM180.47 355.79h58.26c11.48 0 20.8 9.32 20.8 20.81v62.42c0 11.48-9.32 20.8-20.8 20.8h-58.26c-11.49 0-20.8-9.32-20.8-20.8V376.6c0-11.49 9.31-20.81 20.8-20.81zm37.45 41.61h-16.64v20.81h16.64V397.4zm78.02-41.61h58.26c11.48 0 20.8 9.32 20.8 20.81v62.42c0 11.48-9.32 20.8-20.8 20.8h-58.26c-11.49 0-20.8-9.32-20.8-20.8V376.6c0-11.49 9.31-20.81 20.8-20.81zm37.45 41.61h-16.64v20.81h16.64V397.4zM490.9 272.57c-27.36 0-27.36-41.61 0-41.61h176.85c27.37 0 27.37 41.61 0 41.61H490.9zm0 228.86c-27.36 0-27.36-41.61 0-41.61h176.85c27.37 0 27.37 41.61 0 41.61H490.9zm0-114.43c-27.36 0-27.36-41.61 0-41.61h176.85c27.37 0 27.37 41.61 0 41.61H490.9zm-88.37-101.98H246.64c-62.93 0-114.5 51.57-114.5 114.49v324.38h270.39V285.02z" fill="#686b6e" fill-rule="nonzero" class="fill-000000"></path></svg>