<svg viewBox="0 0 32 32" xml:space="preserve" xmlns="http://www.w3.org/2000/svg" enable-background="new 0 0 32 32"><path d="M28.9 9.7c-.3.9-.7 1.7-1.3 2.4h0C26 14 23.3 15 20.7 14.3c-.1 0-.2-.1-.3-.1-.1 0-.2-.1-.3-.1-1.1-.4-2.1-1.1-2.8-1.9.3-.9.5-1.9.5-2.7 0-1.6-.7-3-1.8-4 .3-.7.6-1.4 1.1-2C18.7 1.6 21.4.6 24 1.3c.1 0 .2.1.3.1.1 0 .2.1.3.1 2.5.9 4.2 3.1 4.5 5.6.2.8.1 1.7-.2 2.6z" fill="none" stroke="#686b6e" stroke-width="1.5" stroke-linecap="round" stroke-linejoin="round" stroke-miterlimit="10" class="stroke-000000"></path><path d="M24.3 5.5h-2.2c-.6 0-1.1.5-1.1 1.1h0c0 .6.5 1.1 1.1 1.1h1.1M23.2 7.7c.6 0 1.1.5 1.1 1.1h0c0 .6-.5 1.1-1.1 1.1H21M22.9 4.2v1.3M22.9 10v1.3M22.2 28c0 .8-.3 1.6-.9 2.1-.6.6-1.3.9-2.1.9H5.8c-1.7 0-3-1.3-3-3 0-1.9.8-3.6 2-4.9.9-.9 2-1.5 3.3-1.8v1.4c0 .5.5.9 1 .7l3.4-1.1 3.4 1.1c.5.2 1-.2 1-.7v-1.4c3 .7 5.3 3.4 5.3 6.7zM12.5 4.1c-3 0-5.4 2.4-5.4 5.4S9.5 17 12.5 17s5.4-4.6 5.4-7.6-2.5-5.3-5.4-5.3z" fill="none" stroke="#686b6e" stroke-width="1.5" stroke-linecap="round" stroke-linejoin="round" stroke-miterlimit="10" class="stroke-000000"></path><path d="M22.2 28c0 .8-.3 1.6-.9 2.1-.6.6-1.3.9-2.1.9H5.8c-1.7 0-3-1.3-3-3 0-1.9.8-3.6 2-4.9.9-.9 2-1.5 3.3-1.8v1.4c0 .5.5.9 1 .7l3.4-1.1 3.4 1.1c.5.2 1-.2 1-.7v-1.4c3 .7 5.3 3.4 5.3 6.7z" fill="none" stroke="#686b6e" stroke-width="1.5" stroke-linecap="round" stroke-linejoin="round" stroke-miterlimit="10" class="stroke-000000"></path><path d="M16.8 19.9v2.8c0 .5-.5.9-1 .7l-3.4-1.1L9 23.4c-.5.2-1-.2-1-.7v-2.8c0-.5.5-.9 1-.7l3.4 1.1 3.4-1.1c.6-.2 1 .2 1 .7z" fill="none" stroke="#686b6e" stroke-width="1.5" stroke-linecap="round" stroke-linejoin="round" stroke-miterlimit="10" class="stroke-000000"></path></svg>